<svg xmlns="http://www.w3.org/2000/svg" width="1200" height="1600" viewBox="0 0 180 198">
  <rect width="100%" height="100%" fill="#e8d8c0"/>
  <path d="M32 78 Q90 58 148 78 Q148 92 90 96 Q32 92 32 78Z" fill="#c9903a" stroke="#a06820" stroke-width="0.7"/>
  <ellipse cx="90" cy="78" rx="8" ry="7.5" fill="#f5e6c8" stroke="#a06820" stroke-width="0.7"/>
  <ellipse cx="90" cy="78" rx="5.5" ry="5" fill="#e8c56a"/>
  <ellipse cx="90" cy="78" rx="3" ry="2.8" fill="#fff8e8"/>
  <ellipse cx="89" cy="76.8" rx="1.1" ry="1.1" fill="white" opacity="0.75"/>
  <ellipse cx="73" cy="81" rx="7" ry="6.5" fill="#f5e6c8" stroke="#a06820" stroke-width="0.7"/>
  <ellipse cx="107" cy="81" rx="7" ry="6.5" fill="#f5e6c8" stroke="#a06820" stroke-width="0.7"/>
  <circle cx="90" cy="97" r="5" fill="#f5f0e8" stroke="#c9a97a" stroke-width="0.5"/>
  <path d="M80 122 Q90 112 100 122 Q100 134 90 138 Q80 134 80 122Z" fill="#f5e6c8" stroke="#c9a97a" stroke-width="0.8"/>
  <path d="M83 124 Q90 116 97 124 Q97 132 90 135 Q83 132 83 124Z" fill="#d4a855"/>
  <ellipse cx="142" cy="148" rx="8" ry="8" fill="#f5e6c8" stroke="#c9a97a" stroke-width="0.7"/>
  <ellipse cx="142" cy="148" rx="5.5" ry="5.5" fill="#d4a855"/>
  <line x1="142" y1="156" x2="142" y2="164" stroke="#c9a97a" stroke-width="0.7"/>
  <ellipse cx="142" cy="170" rx="4.5" ry="7" fill="#f5e6c8" stroke="#c9a97a" stroke-width="0.6"/>
</svg>