<svg xmlns="http://www.w3.org/2000/svg" width="1200" height="1600" viewBox="0 0 180 198">
  <rect width="100%" height="100%" fill="#e8d8c0"/>
  <path d="M22 90 Q90 72 158 90 Q158 108 90 112 Q22 108 22 90Z" fill="#c9903a" stroke="#a06820" stroke-width="0.8"/>
  <ellipse cx="90" cy="91" rx="10" ry="9" fill="#f5e6c8" stroke="#a06820" stroke-width="0.8"/>
  <ellipse cx="90" cy="91" rx="7" ry="6.5" fill="#e8c56a"/>
  <ellipse cx="90" cy="91" rx="4" ry="3.8" fill="#fff8e8"/>
  <ellipse cx="88.5" cy="89.5" rx="1.5" ry="1.5" fill="white" opacity="0.75"/>
  <ellipse cx="68" cy="93" rx="8.5" ry="8" fill="#f5e6c8" stroke="#a06820" stroke-width="0.8"/>
  <ellipse cx="68" cy="93" rx="6" ry="5.5" fill="#e8c56a"/>
  <ellipse cx="68" cy="93" rx="3.2" ry="3" fill="#fff8e8"/>
  <ellipse cx="112" cy="93" rx="8.5" ry="8" fill="#f5e6c8" stroke="#a06820" stroke-width="0.8"/>
  <ellipse cx="112" cy="93" rx="6" ry="5.5" fill="#e8c56a"/>
  <ellipse cx="112" cy="93" rx="3.2" ry="3" fill="#fff8e8"/>
  <ellipse cx="47" cy="98" rx="7" ry="6.5" fill="#f5e6c8" stroke="#a06820" stroke-width="0.7"/>
  <ellipse cx="133" cy="98" rx="7" ry="6.5" fill="#f5e6c8" stroke="#a06820" stroke-width="0.7"/>
  <circle cx="90" cy="113" r="5.5" fill="#f5f0e8" stroke="#c9a97a" stroke-width="0.5"/>
  <ellipse cx="90" cy="138" rx="5" ry="8" fill="#f5e6c8" stroke="#c9a97a" stroke-width="0.7"/>
</svg>